<svg width="512" height="512" viewBox="0 0 512 512" fill="none" xmlns="http://www.w3.org/2000/svg">
<rect x="78" y="139" width="231" height="135" rx="10" />
<rect x="78" y="295" width="104" height="135" rx="10" />
<rect x="330" y="139" width="104" height="135" rx="10" />
<rect x="203" y="295" width="231" height="135" rx="10" />
<path d="M459 44.0254C469.581 44.5464 478 53.2896 478 64V448L477.993 448.517C477.724 459.152 469.152 467.724 458.517 467.993L458 468H55L54.4834 467.993C43.8481 467.724 35.2765 459.152 35.0068 448.517L35 448V64C35 53.127 43.6765 44.2808 54.4834 44.0068L55 44H459V44.0254ZM55 448H458V122H55V448ZM328 63C322.477 63 318 67.4772 318 73V93C318 98.5228 322.477 103 328 103H348C353.523 103 358 98.5228 358 93V73C358 67.4772 353.523 63 348 63H328ZM378 63C372.477 63 368 67.4772 368 73V93C368 98.5228 372.477 103 378 103H398C403.523 103 408 98.5228 408 93V73C408 67.4772 403.523 63 398 63H378ZM428 63C422.477 63 418 67.4772 418 73V93C418 98.5228 422.477 103 428 103H448C453.523 103 458 98.5228 458 93V73C458 67.4772 453.523 63 448 63H428Z" />
</svg>
